<svg width="130" height="24" viewBox="0 0 130 24" fill="none" xmlns="http://www.w3.org/2000/svg">
<path d="M12.7041 13.9619H4.12012V23H0.414062V1.67188H13.9639V4.66016H4.12012V11.0029H12.7041V13.9619ZM20.3506 23H16.791V7.15039H20.3506V23ZM16.5713 3.03418C16.5713 2.4873 16.7422 2.0332 17.084 1.67188C17.4355 1.31055 17.9336 1.12988 18.5781 1.12988C19.2227 1.12988 19.7207 1.31055 20.0723 1.67188C20.4238 2.0332 20.5996 2.4873 20.5996 3.03418C20.5996 3.57129 20.4238 4.02051 20.0723 4.38184C19.7207 4.7334 19.2227 4.90918 18.5781 4.90918C17.9336 4.90918 17.4355 4.7334 17.084 4.38184C16.7422 4.02051 16.5713 3.57129 16.5713 3.03418ZM28.0264 23H24.4668V0.5H28.0264V23ZM35.2627 7.15039L35.3652 8.80566C36.4785 7.50684 38.002 6.85742 39.9355 6.85742C42.0547 6.85742 43.5049 7.66797 44.2861 9.28906C45.4385 7.66797 47.0596 6.85742 49.1494 6.85742C50.8975 6.85742 52.1963 7.34082 53.0459 8.30762C53.9053 9.27441 54.3447 10.7002 54.3643 12.585V23H50.8047V12.6875C50.8047 11.6816 50.585 10.9443 50.1455 10.4756C49.7061 10.0068 48.9785 9.77246 47.9629 9.77246C47.1523 9.77246 46.4883 9.99219 45.9707 10.4316C45.4629 10.8613 45.1064 11.4277 44.9014 12.1309L44.916 23H41.3564V12.5703C41.3076 10.7051 40.3555 9.77246 38.5 9.77246C37.0742 9.77246 36.0635 10.3535 35.4678 11.5156V23H31.9082V7.15039H35.2627ZM57.3525 14.9287C57.3525 13.376 57.6602 11.9795 58.2754 10.7393C58.8906 9.48926 59.7549 8.53223 60.8682 7.86816C61.9814 7.19434 63.2607 6.85742 64.7061 6.85742C66.8447 6.85742 68.5781 7.5459 69.9062 8.92285C71.2441 10.2998 71.9668 12.126 72.0742 14.4014L72.0889 15.2363C72.0889 16.7988 71.7861 18.1953 71.1807 19.4258C70.585 20.6562 69.7256 21.6084 68.6025 22.2822C67.4893 22.9561 66.2002 23.293 64.7354 23.293C62.499 23.293 60.707 22.5508 59.3594 21.0664C58.0215 19.5723 57.3525 17.585 57.3525 15.1045V14.9287ZM60.9121 15.2363C60.9121 16.8672 61.249 18.1465 61.9229 19.0742C62.5967 19.9922 63.5342 20.4512 64.7354 20.4512C65.9365 20.4512 66.8691 19.9824 67.5332 19.0449C68.207 18.1074 68.5439 16.7354 68.5439 14.9287C68.5439 13.3271 68.1973 12.0576 67.5039 11.1201C66.8203 10.1826 65.8877 9.71387 64.7061 9.71387C63.5439 9.71387 62.6211 10.1777 61.9375 11.1055C61.2539 12.0234 60.9121 13.4004 60.9121 15.2363ZM79.5596 3.29785V7.15039H82.3574V9.78711H79.5596V18.6348C79.5596 19.2402 79.6768 19.6797 79.9111 19.9531C80.1553 20.2168 80.585 20.3486 81.2002 20.3486C81.6104 20.3486 82.0254 20.2998 82.4453 20.2021V22.9561C81.6348 23.1807 80.8535 23.293 80.1016 23.293C77.3672 23.293 76 21.7842 76 18.7666V9.78711H73.3926V7.15039H76V3.29785H79.5596ZM92.0693 23.293C89.8135 23.293 87.9824 22.585 86.5762 21.1689C85.1797 19.7432 84.4814 17.8486 84.4814 15.4854V15.0459C84.4814 13.4639 84.7842 12.0527 85.3896 10.8125C86.0049 9.5625 86.8643 8.59082 87.9678 7.89746C89.0713 7.2041 90.3018 6.85742 91.6592 6.85742C93.8174 6.85742 95.4824 7.5459 96.6543 8.92285C97.8359 10.2998 98.4268 12.248 98.4268 14.7676V16.2031H88.0703C88.1777 17.5117 88.6123 18.5469 89.374 19.3086C90.1455 20.0703 91.1123 20.4512 92.2744 20.4512C93.9053 20.4512 95.2334 19.792 96.2588 18.4736L98.1777 20.3047C97.543 21.252 96.6934 21.9893 95.6289 22.5166C94.5742 23.0342 93.3877 23.293 92.0693 23.293ZM91.6445 9.71387C90.668 9.71387 89.877 10.0557 89.2715 10.7393C88.6758 11.4229 88.2949 12.375 88.1289 13.5957H94.9111V13.332C94.833 12.1406 94.5156 11.2422 93.959 10.6367C93.4023 10.0215 92.6309 9.71387 91.6445 9.71387ZM106.352 16.2031L104.77 17.8291V23H101.21V0.5H104.77V13.4785L105.883 12.0869L110.263 7.15039H114.54L108.651 13.7568L115.17 23H111.054L106.352 16.2031ZM126.347 23C126.19 22.6973 126.054 22.2041 125.937 21.5205C124.804 22.7021 123.417 23.293 121.776 23.293C120.185 23.293 118.886 22.8389 117.88 21.9307C116.874 21.0225 116.371 19.8994 116.371 18.5615C116.371 16.8721 116.996 15.5781 118.246 14.6797C119.506 13.7715 121.303 13.3174 123.637 13.3174H125.819V12.2773C125.819 11.457 125.59 10.8027 125.131 10.3145C124.672 9.81641 123.974 9.56738 123.036 9.56738C122.226 9.56738 121.562 9.77246 121.044 10.1826C120.526 10.583 120.268 11.0957 120.268 11.7207H116.708C116.708 10.8516 116.996 10.041 117.572 9.28906C118.148 8.52734 118.93 7.93164 119.916 7.50195C120.912 7.07227 122.021 6.85742 123.241 6.85742C125.097 6.85742 126.576 7.32617 127.68 8.26367C128.783 9.19141 129.35 10.5 129.379 12.1895V19.3379C129.379 20.7637 129.579 21.9014 129.979 22.751V23H126.347ZM122.436 20.4365C123.139 20.4365 123.798 20.2656 124.413 19.9238C125.038 19.582 125.507 19.123 125.819 18.5469V15.5586H123.9C122.582 15.5586 121.591 15.7881 120.927 16.2471C120.263 16.7061 119.931 17.3555 119.931 18.1953C119.931 18.8789 120.155 19.4258 120.604 19.8359C121.063 20.2363 121.674 20.4365 122.436 20.4365Z" fill="black"/>
</svg>
